<?xml version="1.0" encoding="utf-8"?>
<svg version="1.1" id="Ebene_1" xmlns="http://www.w3.org/2000/svg" x="0px" y="0px"
	 viewBox="0 0 2998.85 1055.49" style="enable-background:new 0 0 2998.85 1055.49;" xml:space="preserve">
<path d="M997.41,768.1l141-50l151-351l83-14l82-91l-91,15l-55,47l24-56l-65,6l-132,76l-6,11l47-7L997.41,768.1z M769.41,592.1
	l113-239l131-18L769.41,592.1z M587.41,768.1l141-50l226-238l-134,288l141-50l194-450l-240,7l-141,50L587.41,768.1z M52.41,968.1
	l141-50l88-190l252-272l-227,512l141-50l366-850l-141,50l-69,160l-265,293l221-503l-189,15l-141,86l172-11L52.41,968.1z
	 M2485.41,594.1l127-249l102-11L2485.41,594.1z M2384.41,213.1l121-46l40-99l-121,46L2384.41,213.1z M2310.41,768.1l141-50l208-219
	l-116,269l137-50l280-650l-137,50l-67,155l-115,5l-137,40L2310.41,768.1z M2159.41,768.1l132-50l182-450l-115,12l-127,83l96-10
	L2159.41,768.1z M1956.41,536.1l77-173l106-13L1956.41,536.1z M1753.41,768.1l122-41l38-84l75-72l38,197l109-34l-52-256l217-210
	l-160,12l-97,61l124-273l-134,50L1753.41,768.1z M1616.41,564.1l93-209l99-18L1616.41,564.1z M1442.41,760.1l198-18l114-82l-176,18
	l378-410l-211,8l-133,55L1442.41,760.1z M1253.41,768.1l134-50l280-650l-134,50L1253.41,768.1z"/>
</svg>
